<?xml version="1.0" encoding="utf-8"?>
<!-- Generator: Adobe Illustrator 17.0.0, SVG Export Plug-In . SVG Version: 6.00 Build 0)  -->
<!DOCTYPE svg PUBLIC "-//W3C//DTD SVG 1.1//EN" "http://www.w3.org/Graphics/SVG/1.1/DTD/svg11.dtd">
<svg version="1.1" id="Layer_1" xmlns="http://www.w3.org/2000/svg" xmlns:xlink="http://www.w3.org/1999/xlink" x="0px" y="0px"
	 width="100px" height="100px" viewBox="0 0 100 100" enable-background="new 0 0 100 100" xml:space="preserve">
<polygon fill="none" stroke="#F2B134" stroke-width="2" stroke-miterlimit="10" points="13.186,66.579 14.778,69.042 27.151,74.091 
	37.565,71.013 41.241,68.304 41.241,42.441 36.585,30.125 34.993,28.4 27.213,27.169 19.311,29.509 10,51.923 "/>
<polyline fill="none" stroke="#F2B134" stroke-miterlimit="10" points="13.186,66.579 15.544,66.579 28.913,72.167 29.547,73.383 
	"/>
<polyline fill="none" stroke="#F2B134" stroke-miterlimit="10" points="38.378,70.414 36.677,69.581 30.199,71.105 28.913,72.167 
	"/>
<line fill="none" stroke="#F2B134" stroke-miterlimit="10" x1="36.677" y1="69.581" x2="41.241" y2="59.189"/>
<polyline fill="none" stroke="#F2B134" stroke-miterlimit="10" points="30.199,71.105 23.905,61.037 19.357,59.189 13.844,62.838 
	15.544,66.579 "/>
<line fill="none" stroke="#F2B134" stroke-miterlimit="10" x1="11.628" y1="59.413" x2="13.844" y2="62.838"/>
<line fill="none" stroke="#F2B134" stroke-miterlimit="10" x1="19.357" y1="59.189" x2="17.945" y2="32.797"/>
<polyline fill="none" stroke="#F2B134" stroke-miterlimit="10" points="18.651,31.097 31.761,29.724 33.184,28.115 "/>
<polyline fill="none" stroke="#F2B134" stroke-miterlimit="10" points="35.156,28.577 35.156,32.034 41.241,55.08 "/>
<line fill="none" stroke="#F2B134" stroke-miterlimit="10" x1="38.198" y1="44.272" x2="23.905" y2="61.037"/>
<line fill="none" stroke="#F2B134" stroke-miterlimit="10" x1="31.761" y1="29.724" x2="34.931" y2="32.034"/>
<ellipse fill="none" stroke="#F2B134" stroke-miterlimit="10" cx="72.632" cy="74.392" rx="2.048" ry="2.058"/>
<path fill="none" stroke="#F2B134" stroke-width="2" stroke-linecap="round" stroke-miterlimit="10" d="M55.265,62.528v14.065
	c0,1.881,1.517,3.407,3.389,3.407h27.957C88.483,80,90,78.475,90,76.593V23.407C90,21.525,88.483,20,86.611,20H58.654
	c-1.872,0-3.389,1.525-3.389,3.407v18.732"/>
<g>
	<path fill="#F2B134" d="M62.826,63.397c-6.068,0-11.005-4.963-11.005-11.063s4.937-11.063,11.005-11.063
		s11.005,4.963,11.005,11.063C73.831,58.433,68.894,63.397,62.826,63.397z M62.826,42.387c-5.456,0-9.895,4.463-9.895,9.947
		s4.438,9.947,9.895,9.947s9.895-4.462,9.895-9.947C72.721,46.849,68.283,42.387,62.826,42.387z"/>
</g>
<path fill="#F2B134" d="M47.046,52.334c0-4.094,1.564-7.82,4.107-10.637l-0.81-0.761c-2.728,3.016-4.407,7.009-4.407,11.397
	c0,3.626,1.146,6.982,3.079,9.744l0.918-0.626C48.122,58.868,47.046,55.728,47.046,52.334z"/>
<path fill="#F2B134" d="M49.879,52.334c0-3.344,1.272-6.388,3.341-8.695l-0.81-0.761c-2.255,2.507-3.641,5.818-3.641,9.456
	c0,3.034,0.965,5.84,2.59,8.145l0.919-0.626C50.773,57.726,49.879,55.135,49.879,52.334z"/>
<rect x="62.318" y="46.065" fill="#F2B134" width="1.017" height="13.179"/>
<rect x="56.272" y="52.144" fill="#F2B134" width="13.11" height="1.022"/>
</svg>
