<?xml version="1.0" encoding="utf-8"?>
<!-- Generator: Adobe Illustrator 17.0.0, SVG Export Plug-In . SVG Version: 6.00 Build 0)  -->
<!DOCTYPE svg PUBLIC "-//W3C//DTD SVG 1.1//EN" "http://www.w3.org/Graphics/SVG/1.1/DTD/svg11.dtd">
<svg version="1.1" id="Layer_1" xmlns="http://www.w3.org/2000/svg" xmlns:xlink="http://www.w3.org/1999/xlink" x="0px" y="0px"
	 width="100px" height="100px" viewBox="0 0 100 100" enable-background="new 0 0 100 100" xml:space="preserve">
<circle fill="none" stroke="#ED553B" stroke-miterlimit="10" cx="42.279" cy="75.564" r="1.619"/>
<path fill="none" stroke="#ED553B" stroke-width="2" stroke-linecap="round" stroke-miterlimit="10" d="M40.806,27.27H28.249
	c-2.682,0-4.856,2.174-4.856,4.856v46.945c0,2.682,2.174,4.856,4.856,4.856H54.15c2.682,0,4.856-2.174,4.856-4.856V45.123"/>
<path fill="none" stroke="#ED553B" stroke-width="2" stroke-linecap="round" stroke-miterlimit="10" d="M48.361,41.346
	c-2.086,0-3.777-1.691-3.777-3.777V22.145c0-2.086,1.691-3.777,3.777-3.777h29.363c2.086,0,3.777,1.691,3.777,3.777v15.424
	c0,2.086-1.691,3.777-3.777,3.777H48.361z"/>
<polyline fill="none" stroke="#ED553B" stroke-width="2" stroke-linecap="round" stroke-linejoin="round" stroke-miterlimit="10" points="
	56.714,24.667 49.286,30.167 56.714,35.667 "/>
<polyline fill="none" stroke="#ED553B" stroke-width="2" stroke-linecap="round" stroke-linejoin="round" stroke-miterlimit="10" points="
	68.286,24.667 75.714,30.167 68.286,35.667 "/>
<line fill="none" stroke="#ED553B" stroke-width="2" stroke-linecap="round" stroke-linejoin="round" stroke-miterlimit="10" x1="60.246" y1="37.427" x2="65.254" y2="22.406"/>
</svg>
