<?xml version="1.0" encoding="utf-8"?>
<!-- Generator: Adobe Illustrator 17.0.0, SVG Export Plug-In . SVG Version: 6.00 Build 0)  -->
<!DOCTYPE svg PUBLIC "-//W3C//DTD SVG 1.1//EN" "http://www.w3.org/Graphics/SVG/1.1/DTD/svg11.dtd">
<svg version="1.1" id="Layer_1" xmlns="http://www.w3.org/2000/svg" xmlns:xlink="http://www.w3.org/1999/xlink" x="0px" y="0px"
	 width="100px" height="100px" viewBox="0 0 100 100" enable-background="new 0 0 100 100" xml:space="preserve">
<path fill="none" stroke="#068587" stroke-width="2" stroke-linecap="round" stroke-miterlimit="10" d="M72,43V29.5
	c0-1.657-0.843-2.5-2.5-2.5h-49c-1.657,0-3.5,0.843-3.5,2.5v49c0,1.657,1.843,3.5,3.5,3.5H62"/>
<path fill="none" stroke="#068587" stroke-width="2" stroke-linecap="round" stroke-miterlimit="10" d="M88,79c0,1.657-1.343,3-3,3
	H69c-1.657,0-3-1.343-3-3V50c0-1.657,1.343-3,3-3h16c1.657,0,3,1.343,3,3V79z"/>
<circle fill="none" stroke="#068587" stroke-miterlimit="10" cx="45.667" cy="76.833" r="1"/>
<circle fill="none" stroke="#068587" stroke-miterlimit="10" cx="77.667" cy="76.833" r="1"/>
</svg>
