<?xml version="1.0" encoding="utf-8"?>
<!-- Generator: Adobe Illustrator 17.0.0, SVG Export Plug-In . SVG Version: 6.00 Build 0)  -->
<!DOCTYPE svg PUBLIC "-//W3C//DTD SVG 1.1//EN" "http://www.w3.org/Graphics/SVG/1.1/DTD/svg11.dtd">
<svg version="1.1" id="Layer_1" xmlns="http://www.w3.org/2000/svg" xmlns:xlink="http://www.w3.org/1999/xlink" x="0px" y="0px"
	 width="300px" height="200px" viewBox="0 0 300 200" enable-background="new 0 0 300 200" xml:space="preserve">
<g>
	<polygon fill="#8A9E9A" points="136.97,70.167 223,100.434 223,70.434 136.934,40.167 	"/>
	<polygon fill="#B7D1CB" points="223.143,70.434 235.689,66.024 150,35.559 137.041,40.167 	"/>
	<polygon fill="#CDEBE4" points="223.299,70.434 236,66.024 236,96.024 223.377,100.434 	"/>
	<ellipse fill="#8A9E9A" cx="222.307" cy="65.215" rx="5.338" ry="0.808"/>
	<g id="layer1_1_" transform="translate(0,-552.36218)" inkscape:label="Detail" inkscape:groupmode="layer">
		<path id="path2996-67_1_" inkscape:connector-curvature="0" fill="#E7E600" d="M222.265,597.781l-2.773,1.02l-0.357,0.818
			l-0.381,1.105v0.001l-0.006,0.006v-0.004l-2.272,6.209l0.534,4.217l-0.007-0.001l0.375,0.634l4.412,2.221l1.037-0.058l2.74-0.749
			l0.49-0.303l0.808-0.619l0.284-2.709l0.009-0.018l-0.091-6.068l-1.268-4.383l-0.403-0.462l-0.593-0.289L222.265,597.781
			L222.265,597.781z"/>
		<path id="path2996_1_" sodipodi:nodetypes="ccccccc" inkscape:connector-curvature="0" fill="#BCBB00" d="M217.376,611.787
			l4.412,2.22l1.038-0.058l-0.461-0.404l-4.441-2.278l-0.923-0.115L217.376,611.787z"/>
		<path id="path2996-6_1_" sodipodi:nodetypes="ccccccc" inkscape:connector-curvature="0" fill="#AAAA00" d="M225.565,613.2
			l-2.739,0.75l-0.461-0.404l0.606-0.404l2.912-0.714l0.173,0.469L225.565,613.2z"/>
		<path id="path2996-6-7_1_" sodipodi:nodetypes="ccccc" inkscape:connector-curvature="0" fill="#CDCC00" d="M226.863,612.277
			l0.288-2.739l-1.269,2.891l0.173,0.469L226.863,612.277z"/>
		<path id="path2996-2_1_" sodipodi:nodetypes="ccccccc" inkscape:connector-curvature="0" fill="#D2D100" d="M222.365,613.546
			l-4.441-2.278c-0.088-0.045-0.392-1.235-0.392-1.235l2.196-1.172l1.331,0.644l1.884,3.653L222.365,613.546z"/>
		<path id="path2996-6-70_1_" sodipodi:nodetypes="cccccc" inkscape:connector-curvature="0" fill="#E7E600" d="M222.943,613.151
			l2.939-0.723l1.273-2.878l-1.17-5.207l-4.918,5.173L222.943,613.151z"/>
		<path id="path2996-6-70-3_1_" sodipodi:nodetypes="ccccccc" inkscape:connector-curvature="0" fill="#E0E000" d="M227.155,609.55
			l-1.17-5.207l-0.651-4.955l0.058-0.75l0.404,0.461l1.269,4.383L227.155,609.55z"/>
		<path id="path2996-6-70-3-6_1_" sodipodi:nodetypes="cccccccc" inkscape:connector-curvature="0" fill="#FBFA00" d="
			M225.334,599.388l0.651,4.955l-4.922,5.167l-1.335-0.65l-0.975-8.137l0.382-1.105l5.104-0.75L225.334,599.388z"/>
		<path id="path2996-6-70-3-6-9_1_" sodipodi:nodetypes="ccccc" inkscape:connector-curvature="0" fill="#FFFE34" d="
			M224.239,598.869l1.096,0.519l0.058-0.75l-0.593-0.289L224.239,598.869z"/>
		<path id="path2996-6-70-3-6-9-2_1_" sodipodi:nodetypes="ccc" inkscape:connector-curvature="0" fill="#EEED00" d="M224.8,598.349
			l-0.561,0.52l-5.104,0.75l0.357-0.817l2.773-1.019L224.8,598.349z"/>
		<path id="path2996-2-5_1_" sodipodi:nodetypes="ccccccc" inkscape:connector-curvature="0" fill="#E9E800" d="M217.532,610.033
			l2.196-1.172l-0.981-8.133l-2.273,6.208l0.534,4.221l0.916,0.111L217.532,610.033"/>
	</g>
</g>
<g>
	<polygon fill="#CDEBE4" points="59.724,122.148 149,90.823 149,60.823 59.807,92.148 	"/>
	<polygon fill="#8A9E9A" points="25.221,80 60,92.148 60,122.148 25.331,110 	"/>
	<polygon fill="#B7D1CB" points="148.669,60.823 113.607,48.498 25,80 59.558,92.148 	"/>
	<g id="layer1" transform="translate(0,-552.36218)" inkscape:label="Detail" inkscape:groupmode="layer">
		<path id="path2996-67" inkscape:connector-curvature="0" fill="#A0D7B2" d="M114.503,590.247l-2.915,1.072l-0.375,0.86
			l-0.401,1.162v0.001l-0.006,0.006v-0.004l-2.389,6.528l0.561,4.433l-0.008-0.001l0.395,0.666l4.638,2.335l1.09-0.061l2.881-0.788
			l0.515-0.319l0.849-0.651l0.298-2.848l0.009-0.019l-0.096-6.379l-1.333-4.608l-0.424-0.485l-0.624-0.304L114.503,590.247
			L114.503,590.247z"/>
		<path id="path2996-6-70-3-6" sodipodi:nodetypes="cccccccc" inkscape:connector-curvature="0" fill="#B2EFC6" d="M117.73,591.936
			l0.685,5.209l-5.175,5.433l-1.404-0.683l-1.025-8.554l0.401-1.162l5.366-0.788L117.73,591.936z"/>
		<path id="path2996" sodipodi:nodetypes="ccccccc" inkscape:connector-curvature="0" fill="#91C3A1" d="M109.363,604.971
			l4.638,2.334l1.091-0.061l-0.485-0.424l-4.668-2.395l-0.97-0.121L109.363,604.971z"/>
		<path id="path2996-6" sodipodi:nodetypes="ccccccc" inkscape:connector-curvature="0" fill="#91C3A1" d="M117.972,606.456
			l-2.88,0.788l-0.485-0.424l0.637-0.424l3.062-0.75l0.182,0.493L117.972,606.456z"/>
		<path id="path2996-6-7" sodipodi:nodetypes="ccccc" inkscape:connector-curvature="0" fill="#97CBA8" d="M119.336,605.486
			l0.303-2.88l-1.334,3.039l0.182,0.493L119.336,605.486z"/>
		<path id="path2996-2" sodipodi:nodetypes="ccccccc" inkscape:connector-curvature="0" fill="#9AD0AC" d="M114.607,606.82
			l-4.668-2.395c-0.093-0.048-0.412-1.298-0.412-1.298l2.309-1.232l1.399,0.677l1.98,3.84L114.607,606.82z"/>
		<path id="path2996-6-70" sodipodi:nodetypes="cccccc" inkscape:connector-curvature="0" fill="#A0D7B2" d="M115.216,606.405
			l3.09-0.76l1.338-3.026l-1.23-5.474l-5.17,5.439L115.216,606.405z"/>
		<path id="path2996-6-70-3" sodipodi:nodetypes="ccccccc" inkscape:connector-curvature="0" fill="#A9E4BD" d="M119.644,602.62
			l-1.23-5.474l-0.685-5.209l0.061-0.788l0.424,0.485l1.334,4.608L119.644,602.62z"/>
		<path id="path2996-6-70-3-6-9" sodipodi:nodetypes="ccccc" inkscape:connector-curvature="0" fill="#B9F9CE" d="M116.578,591.39
			l1.152,0.546l0.061-0.788l-0.623-0.304L116.578,591.39z"/>
		<path id="path2996-6-70-3-6-9-2" sodipodi:nodetypes="ccc" inkscape:connector-curvature="0" fill="#AAE4BD" d="M117.167,590.844
			l-0.59,0.546l-5.366,0.788l0.375-0.859l2.915-1.072L117.167,590.844z"/>
		<path id="path2996-2-5" sodipodi:nodetypes="ccccccc" inkscape:connector-curvature="0" fill="#A4DDB7" d="M109.527,603.127
			l2.309-1.232l-1.031-8.55l-2.39,6.527l0.561,4.437l0.963,0.116L109.527,603.127"/>
	</g>
	<ellipse fill="#8A9E9A" cx="114.307" cy="58.215" rx="5.338" ry="0.808"/>
</g>
<g>
	<polygon fill="#8A9E9A" points="132.272,113.105 199,136.613 199,106.613 132.199,83.105 	"/>
	<polygon fill="#B7D1CB" points="223.319,86.941 223.143,86.88 222.967,86.941 172.236,69.108 132.419,83.105 199.293,106.613 
		275,80 259.123,74.355 	"/>
	<polygon fill="#CDEBE4" points="274.853,110 199,136.613 199,106.613 274.78,80 	"/>
	<g>
		<path fill="#6A717C" d="M176.045,73.642c0,0-0.223,0.847-0.334,1.46c-0.335,1.841,1.297,3.27,3.191,3.625l1.656-0.416
			C180.559,78.311,177.466,77.113,176.045,73.642z"/>
		<path fill="#FFB71D" d="M175.711,75.102c-0.335,1.841,1.297,3.27,3.191,3.625c0,0-0.081,1.205-1.864,2.245
			c-1.783,1.04-6.931,2.358-6.931,2.358s1.893-6.426,3.468-7.578C174.379,75.164,175.711,75.102,175.711,75.102z"/>
		<path fill="#FAE851" d="M175.182,76.439c-0.227,1.246,0.878,2.214,2.16,2.454c0,0-0.055,0.815-1.262,1.52
			c-1.207,0.704-4.548,1.74-4.548,1.74s1.04-4.395,2.204-5.274C174.274,76.473,175.182,76.439,175.182,76.439z"/>
		<path fill="#3B444A" d="M178.902,78.728l1.656-0.416c0,0-0.847-0.329-1.857-1.139c-0.733,0.178-1.444,0.313-2.113,0.412
			C177.186,78.156,178.014,78.561,178.902,78.728z"/>
		<path fill="#F12D2D" d="M178.404,68.917c0,0-3.715-0.934-6.538,4.659l0.297,0.511c0,0,2.674-1.796,4.457-0.511L178.404,68.917z"/>
		<path fill="#C60404" d="M176.621,73.576l1.783-4.659c0,0-0.595-0.149-1.489,0.03c-0.686,1.254-1.313,2.639-1.863,4.167
			C175.593,73.108,176.14,73.229,176.621,73.576z"/>
		<path fill="#F12D2D" d="M196.313,57.997c0,0-14.584-0.413-20.267,15.645c-0.167,3.299,3.12,4.646,4.513,4.669
			C194.711,73.932,196.299,62.287,196.313,57.997z"/>
		<path fill="#C60404" d="M195.5,58.02c-1.581,7.81-7.428,14.669-12.161,17.361c-0.929,0.528-1.896,0.943-2.857,1.272
			c0.189-0.894,0.453-2.141,0.523-2.473c0.111-0.532,0.696-2.087-1.044-1.274c-1.321,0.826-2.046,4.444-2.046,4.444
			c0.932,0.651,1.994,0.951,2.644,0.961c14.152-4.379,15.74-16.024,15.754-20.315C196.313,57.997,196.019,57.988,195.5,58.02z"/>
		<path fill="#B3CAD9" d="M190.531,58.967c0.872,2.195,2.734,3.888,5.035,4.527c0.594-2.235,0.743-4.202,0.747-5.498
			C196.313,57.997,193.838,57.928,190.531,58.967z"/>
		<path fill="#93A8B5" d="M195.5,58.02c-0.337,1.662-0.868,3.28-1.539,4.825c0.503,0.275,1.041,0.493,1.604,0.65
			c0.594-2.235,0.743-4.202,0.747-5.498C196.313,57.997,196.019,57.988,195.5,58.02z"/>
		<path fill="#FC7A7A" d="M177.434,72.915l0.192,1.173c0,0,4.671-10.337,12.405-12.76c1.303-0.276,0.352-1.62-0.91-1.055
			C187.858,60.838,181.497,64.599,177.434,72.915z"/>
		<ellipse fill="#C60404" cx="187.327" cy="65.535" rx="3.204" ry="3.754"/>
		<ellipse fill="#B3CAD9" cx="187.077" cy="65.242" rx="2.954" ry="3.461"/>
		<ellipse fill="#0E8EE3" cx="187.019" cy="65.175" rx="2.566" ry="3.007"/>
		<path fill="#09CEFC" d="M189.121,64.386c-0.301-1.353-1.42-2.153-2.526-1.876c-1.445,0.362-1.934,1.609-1.839,2.823
			C185.569,63.585,188.2,63.569,189.121,64.386z"/>
		<path fill="#F12D2D" d="M181.97,77.238c0,0,1.189-1.572,3.492-2.012c1.189,3.572-2.154,6.024-4.383,7.212l-0.297-0.411
			C180.781,82.028,182.639,79.17,181.97,77.238z"/>
		<path fill="#F12D2D" d="M180.781,72.752c1.449,1.214-5.628,6.79-5.628,6.79s-0.557,0.558-0.78,0.399s0-0.771,0-0.771
			S179.333,72.093,180.781,72.752z"/>
		<path fill="#FC7A7A" d="M180.362,72.959c0.299,0.4-4.595,5.208-4.595,5.208s-1.09,1.252-1.262,1.13
			c-0.172-0.122,1.546-2.371,1.546-2.371S179.983,72.425,180.362,72.959z"/>
	</g>
	<ellipse fill="#8A9E9A" cx="180.381" cy="88.215" rx="10.274" ry="1.555"/>
</g>
<g>
	<polygon fill="#B7D1CB" points="108.851,91.389 83.125,100.433 150,123.941 175.726,114.898 	"/>
	<polygon fill="#8A9E9A" points="149.937,153.941 83,130.433 83,100.433 149.906,123.941 	"/>
	<polygon fill="#CDEBE4" points="176,114.898 174.279,115.455 150,123.941 150,153.941 176,144.898 	"/>
	<ellipse fill="#8A9E9A" cx="149.307" cy="115.215" rx="5.338" ry="0.808"/>
	<g id="layer1_2_" transform="translate(0,-552.36218)" inkscape:label="Detail" inkscape:groupmode="layer">
		<path id="path2996-67_2_" inkscape:connector-curvature="0" fill="#FBACB2" d="M149.211,643.655l-3.343,1.229l-0.43,0.986
			l-0.46,1.332v0.001l-0.007,0.007v-0.004l-2.74,7.486l0.643,5.084l-0.009-0.001l0.452,0.764l5.319,2.678l1.25-0.07l3.304-0.903
			l0.591-0.366l0.974-0.746l0.342-3.266l0.01-0.022l-0.11-7.315l-1.529-5.284l-0.486-0.557l-0.715-0.348L149.211,643.655
			L149.211,643.655z"/>
		<path id="path2996-6-70-3-6_2_" sodipodi:nodetypes="cccccccc" inkscape:connector-curvature="0" fill="#FDA7AD" d="
			M152.912,645.592l0.785,5.974l-5.934,6.23l-1.61-0.784l-1.175-9.81l0.46-1.332l6.153-0.904L152.912,645.592z"/>
		<path id="path2996_2_" sodipodi:nodetypes="ccccccc" inkscape:connector-curvature="0" fill="#E2767B" d="M143.317,660.54
			l5.319,2.677l1.251-0.07l-0.556-0.487l-5.354-2.746l-1.112-0.139L143.317,660.54z"/>
		<path id="path2996-6_2_" sodipodi:nodetypes="ccccccc" inkscape:connector-curvature="0" fill="#CC6D71" d="M153.19,662.243
			l-3.302,0.904l-0.556-0.487l0.73-0.487l3.511-0.86l0.209,0.565L153.19,662.243z"/>
		<path id="path2996-6-7_2_" sodipodi:nodetypes="ccccc" inkscape:connector-curvature="0" fill="#D57E83" d="M154.754,661.131
			l0.348-3.302l-1.53,3.485l0.209,0.565L154.754,661.131z"/>
		<path id="path2996-2_2_" sodipodi:nodetypes="ccccccc" inkscape:connector-curvature="0" fill="#EC888E" d="M149.331,662.661
			l-5.354-2.746c-0.107-0.055-0.473-1.489-0.473-1.489l2.648-1.413l1.605,0.777l2.271,4.404L149.331,662.661z"/>
		<path id="path2996-6-70_2_" sodipodi:nodetypes="cccccc" inkscape:connector-curvature="0" fill="#F9979D" d="M150.029,662.185
			l3.544-0.871l1.535-3.47l-1.41-6.278l-5.929,6.237L150.029,662.185z"/>
		<path id="path2996-6-70-3_2_" sodipodi:nodetypes="ccccccc" inkscape:connector-curvature="0" fill="#F48B95" d="M155.107,657.844
			l-1.41-6.278l-0.785-5.974l0.07-0.904l0.487,0.556l1.53,5.284L155.107,657.844z"/>
		<path id="path2996-6-70-3-6-9_2_" sodipodi:nodetypes="ccccc" inkscape:connector-curvature="0" fill="#FFB6BA" d="
			M151.591,644.966l1.321,0.626l0.07-0.904l-0.714-0.348L151.591,644.966z"/>
		<path id="path2996-6-70-3-6-9-2_2_" sodipodi:nodetypes="ccc" inkscape:connector-curvature="0" fill="#F9949A" d="
			M152.267,644.34l-0.676,0.627l-6.153,0.904l0.43-0.985l3.343-1.229L152.267,644.34z"/>
		<path id="path2996-2-5_2_" sodipodi:nodetypes="ccccccc" inkscape:connector-curvature="0" fill="#F89BA1" d="M143.505,658.426
			l2.648-1.413l-1.182-9.805l-2.741,7.485l0.644,5.088l1.104,0.134L143.505,658.426"/>
	</g>
</g>
</svg>
