<?xml version="1.0" encoding="utf-8"?>
<!-- Generator: Adobe Illustrator 17.0.0, SVG Export Plug-In . SVG Version: 6.00 Build 0)  -->
<!DOCTYPE svg PUBLIC "-//W3C//DTD SVG 1.1//EN" "http://www.w3.org/Graphics/SVG/1.1/DTD/svg11.dtd">
<svg version="1.1" id="Layer_1" xmlns="http://www.w3.org/2000/svg" xmlns:xlink="http://www.w3.org/1999/xlink" x="0px" y="0px"
	 width="30px" height="50px" viewBox="0 0 30 50" enable-background="new 0 0 30 50" xml:space="preserve">
<polygon fill="none" stroke="#068587" stroke-miterlimit="10" points="3.809,39.152 5.214,41.313 16.126,45.743 25.31,43.042 
	28.551,40.666 28.551,17.977 24.446,7.172 23.041,5.659 16.18,4.579 9.212,6.632 1,26.295 "/>
<polyline fill="none" stroke="#068587" stroke-miterlimit="10" points="3.809,39.152 5.889,39.152 17.679,44.055 18.239,45.122 "/>
<polyline fill="none" stroke="#068587" stroke-miterlimit="10" points="26.027,42.517 24.527,41.786 18.813,43.124 17.679,44.055 
	"/>
<line fill="none" stroke="#068587" stroke-miterlimit="10" x1="24.527" y1="41.786" x2="28.551" y2="32.67"/>
<polyline fill="none" stroke="#068587" stroke-miterlimit="10" points="18.813,43.124 13.263,34.291 9.252,32.67 4.39,35.871 
	5.889,39.152 "/>
<line fill="none" stroke="#068587" stroke-miterlimit="10" x1="2.436" y1="32.866" x2="4.39" y2="35.871"/>
<line fill="none" stroke="#068587" stroke-miterlimit="10" x1="9.252" y1="32.67" x2="8.007" y2="9.516"/>
<polyline fill="none" stroke="#068587" stroke-miterlimit="10" points="8.629,8.025 20.191,6.821 21.446,5.408 "/>
<polyline fill="none" stroke="#068587" stroke-miterlimit="10" points="23.185,5.814 23.185,8.847 28.551,29.065 "/>
<line fill="none" stroke="#068587" stroke-miterlimit="10" x1="25.868" y1="19.583" x2="13.263" y2="34.291"/>
<line fill="none" stroke="#068587" stroke-miterlimit="10" x1="20.191" y1="6.821" x2="22.987" y2="8.847"/>
</svg>
